<?xml version="1.0" encoding="UTF-8" standalone="no"?>
<svg width="28px" height="28px" viewBox="0 0 28 28" version="1.1" xmlns="http://www.w3.org/2000/svg" xmlns:xlink="http://www.w3.org/1999/xlink" xmlns:sketch="http://www.bohemiancoding.com/sketch/ns">
    <!-- Generator: Sketch 3.3.3 (12081) - http://www.bohemiancoding.com/sketch -->
    <title>Leavel10</title>
    <desc>Created with Sketch.</desc>
    <defs></defs>
    <g id="Page-1" stroke="none" stroke-width="1" fill="none" fill-rule="evenodd" sketch:type="MSPage">
        <g id="Levels" sketch:type="MSArtboardGroup" transform="translate(-153.000000, -937.000000)" fill="#E97823">
            <g id="Level-10" sketch:type="MSLayerGroup" transform="translate(153.000000, 937.000000)">
                <g id="Level10" transform="translate(4.000000, 4.000000)" sketch:type="MSShapeGroup">
                    <path d="M7.352,5.5 C8.457,5.5 9.352,6.395 9.352,7.5 C9.352,8.605 8.457,9.5 7.352,9.5 C6.248,9.5 5.352,8.605 5.352,7.5 C5.352,6.395 6.248,5.5 7.352,5.5" id="Fill-1"></path>
                    <path d="M10,10.5 C11.105,10.5 12,11.395 12,12.5 C12,13.605 11.105,14.5 10,14.5 C8.895,14.5 8,13.605 8,12.5 C8,11.395 8.895,10.5 10,10.5" id="Fill-2"></path>
                    <path d="M12.5,15.5 C13.605,15.5 14.5,16.395 14.5,17.5 C14.5,18.605 13.605,19.5 12.5,19.5 C11.395,19.5 10.5,18.605 10.5,17.5 C10.5,16.395 11.395,15.5 12.5,15.5" id="Fill-3"></path>
                    <path d="M2.5,15.5 C3.605,15.5 4.5,16.395 4.5,17.5 C4.5,18.605 3.605,19.5 2.5,19.5 C1.395,19.5 0.5,18.605 0.5,17.5 C0.5,16.395 1.395,15.5 2.5,15.5" id="Fill-4"></path>
                    <path d="M10,0.5 C11.105,0.5 12,1.395 12,2.5 C12,3.605 11.105,4.5 10,4.5 C8.895,4.5 8,3.605 8,2.5 C8,1.395 8.895,0.5 10,0.5" id="Fill-5"></path>
                    <path d="M5.148,10.5 C6.252,10.5 7.148,11.395 7.148,12.5 C7.148,13.605 6.252,14.5 5.148,14.5 C4.043,14.5 3.148,13.605 3.148,12.5 C3.148,11.395 4.043,10.5 5.148,10.5" id="Fill-6"></path>
                    <path d="M12.352,5.5 C13.457,5.5 14.352,6.395 14.352,7.5 C14.352,8.605 13.457,9.5 12.352,9.5 C11.248,9.5 10.352,8.605 10.352,7.5 C10.352,6.395 11.248,5.5 12.352,5.5" id="Fill-7"></path>
                    <path d="M15,10.5 C16.105,10.5 17,11.395 17,12.5 C17,13.605 16.105,14.5 15,14.5 C13.895,14.5 13,13.605 13,12.5 C13,11.395 13.895,10.5 15,10.5" id="Fill-8"></path>
                    <path d="M17.5,15.5 C18.605,15.5 19.5,16.395 19.5,17.5 C19.5,18.605 18.605,19.5 17.5,19.5 C16.395,19.5 15.5,18.605 15.5,17.5 C15.5,16.395 16.395,15.5 17.5,15.5" id="Fill-9"></path>
                    <path d="M7.5,15.5 C8.605,15.5 9.5,16.395 9.5,17.5 C9.5,18.605 8.605,19.5 7.5,19.5 C6.395,19.5 5.5,18.605 5.5,17.5 C5.5,16.395 6.395,15.5 7.5,15.5" id="Fill-10"></path>
                </g>
            </g>
        </g>
    </g>
</svg>