<?xml version="1.0" encoding="UTF-8" standalone="no"?>
<svg width="28px" height="28px" viewBox="0 0 28 28" version="1.1" xmlns="http://www.w3.org/2000/svg" xmlns:xlink="http://www.w3.org/1999/xlink" xmlns:sketch="http://www.bohemiancoding.com/sketch/ns">
    <!-- Generator: Sketch 3.3.3 (12081) - http://www.bohemiancoding.com/sketch -->
    <title>Level4</title>
    <desc>Created with Sketch.</desc>
    <defs></defs>
    <g id="Page-1" stroke="none" stroke-width="1" fill="none" fill-rule="evenodd" sketch:type="MSPage">
        <g id="Levels" sketch:type="MSArtboardGroup" transform="translate(-153.000000, -464.000000)" fill="#5D86E6">
            <g id="Level4" sketch:type="MSLayerGroup" transform="translate(153.000000, 464.000000)">
                <g id="Level-4" transform="translate(8.000000, 8.000000)" sketch:type="MSShapeGroup">
                    <path d="M2,4 C3.105,4 4,4.895 4,6 C4,7.105 3.105,8 2,8 C0.895,8 0,7.105 0,6 C0,4.895 0.895,4 2,4" id="Fill-1"></path>
                    <path d="M10,4 C11.105,4 12,4.895 12,6 C12,7.105 11.105,8 10,8 C8.895,8 8,7.105 8,6 C8,4.895 8.895,4 10,4" id="Fill-2"></path>
                    <path d="M6,0 C7.105,0 8,0.895 8,2 C8,3.105 7.105,4 6,4 C4.895,4 4,3.105 4,2 C4,0.895 4.895,0 6,0" id="Fill-3"></path>
                    <path d="M6,8 C7.105,8 8,8.895 8,10 C8,11.105 7.105,12 6,12 C4.895,12 4,11.105 4,10 C4,8.895 4.895,8 6,8" id="Fill-4"></path>
                </g>
            </g>
        </g>
    </g>
</svg>