<?xml version="1.0" encoding="UTF-8" standalone="no"?>
<svg width="28px" height="28px" viewBox="0 0 28 28" version="1.1" xmlns="http://www.w3.org/2000/svg" xmlns:xlink="http://www.w3.org/1999/xlink" xmlns:sketch="http://www.bohemiancoding.com/sketch/ns">
    <!-- Generator: Sketch 3.3.3 (12081) - http://www.bohemiancoding.com/sketch -->
    <title>Level8</title>
    <desc>Created with Sketch.</desc>
    <defs></defs>
    <g id="Page-1" stroke="none" stroke-width="1" fill="none" fill-rule="evenodd" sketch:type="MSPage">
        <g id="Levels" sketch:type="MSArtboardGroup" transform="translate(-153.000000, -787.000000)" fill="#B083D1">
            <g id="Level8" sketch:type="MSLayerGroup" transform="translate(153.000000, 787.000000)">
                <g transform="translate(6.000000, 3.000000)" sketch:type="MSShapeGroup">
                    <path d="M2.321,6.429 C3.465,6.429 4.393,7.356 4.393,8.5 C4.393,9.644 3.465,10.571 2.321,10.571 C1.177,10.571 0.25,9.644 0.25,8.5 C0.25,7.356 1.177,6.429 2.321,6.429" id="Fill-1"></path>
                    <path d="M7.5,6.429 C8.644,6.429 9.571,7.356 9.571,8.5 C9.571,9.644 8.644,10.571 7.5,10.571 C6.356,10.571 5.429,9.644 5.429,8.5 C5.429,7.356 6.356,6.429 7.5,6.429" id="Fill-2"></path>
                    <path d="M7.5,0.8 C8.644,0.8 9.571,1.727 9.571,2.871 C9.571,4.015 8.644,4.943 7.5,4.943 C6.356,4.943 5.429,4.015 5.429,2.871 C5.429,1.727 6.356,0.8 7.5,0.8" id="Fill-3"></path>
                    <path d="M12.679,6.429 C13.823,6.429 14.75,7.356 14.75,8.5 C14.75,9.644 13.823,10.571 12.679,10.571 C11.535,10.571 10.607,9.644 10.607,8.5 C10.607,7.356 11.535,6.429 12.679,6.429" id="Fill-4"></path>
                    <path d="M2.321,11.857 C3.465,11.857 4.393,12.785 4.393,13.929 C4.393,15.073 3.465,16 2.321,16 C1.177,16 0.25,15.073 0.25,13.929 C0.25,12.785 1.177,11.857 2.321,11.857" id="Fill-5"></path>
                    <path d="M7.5,11.857 C8.644,11.857 9.571,12.785 9.571,13.929 C9.571,15.073 8.644,16 7.5,16 C6.356,16 5.429,15.073 5.429,13.929 C5.429,12.785 6.356,11.857 7.5,11.857" id="Fill-6"></path>
                    <path d="M7.5,17.5 C8.644,17.5 9.571,18.427 9.571,19.571 C9.571,20.715 8.644,21.643 7.5,21.643 C6.356,21.643 5.429,20.715 5.429,19.571 C5.429,18.427 6.356,17.5 7.5,17.5" id="Fill-7"></path>
                    <path d="M12.679,11.857 C13.823,11.857 14.75,12.785 14.75,13.929 C14.75,15.073 13.823,16 12.679,16 C11.535,16 10.607,15.073 10.607,13.929 C10.607,12.785 11.535,11.857 12.679,11.857" id="Fill-8"></path>
                </g>
            </g>
        </g>
    </g>
</svg>